<?xml version="1.0" standalone="no"?>
<!DOCTYPE svg PUBLIC "-//W3C//DTD SVG 20010904//EN"
 "http://www.w3.org/TR/2001/REC-SVG-20010904/DTD/svg10.dtd">
<svg version="1.0" xmlns="http://www.w3.org/2000/svg"
 width="864.000000pt" height="1184.000000pt" viewBox="0 0 864.000000 1184.000000"
 preserveAspectRatio="xMidYMid meet">

<g transform="translate(0.000000,1184.000000) scale(0.100000,-0.100000)"
fill="#000000" stroke="none">
<path d="M4099 9826 c-2 -3 -33 -6 -69 -7 -74 -2 -289 -48 -402 -85 -42 -14
-83 -24 -90 -23 -7 2 -31 -6 -53 -18 -22 -11 -85 -40 -140 -63 -55 -23 -104
-46 -110 -50 -5 -4 -32 -15 -60 -25 -50 -19 -98 -43 -250 -125 -99 -54 -233
-155 -248 -186 -5 -13 -13 -24 -16 -24 -4 0 -13 -20 -20 -45 -7 -25 -17 -45
-22 -45 -5 0 -8 -38 -7 -85 1 -47 6 -85 10 -85 4 0 8 8 9 18 0 9 9 -2 19 -25
10 -22 27 -46 37 -52 16 -9 16 -10 -7 -11 -14 -1 -19 -4 -12 -7 6 -2 12 -11
12 -18 0 -7 7 -15 15 -19 20 -7 19 -26 -1 -26 -8 0 -13 -4 -10 -8 3 -5 -12
-27 -32 -49 -78 -86 -94 -105 -127 -158 -19 -30 -35 -62 -35 -73 0 -10 -4 -22
-9 -27 -6 -6 -19 -45 -30 -88 -17 -61 -20 -98 -17 -180 2 -57 8 -112 14 -123
9 -17 28 -106 36 -174 7 -49 39 -206 53 -260 8 -30 18 -75 22 -100 4 -25 10
-50 14 -57 16 -25 60 -280 51 -294 -4 -6 -11 -6 -20 2 -25 21 -28 0 -4 -26 19
-20 24 -39 28 -100 5 -85 17 -104 29 -48 12 60 9 420 -5 498 -27 152 -12 491
23 535 7 8 10 20 8 27 -2 7 9 32 26 57 17 25 31 49 31 54 0 6 11 20 25 33 13
13 25 29 25 36 0 7 11 28 24 47 13 19 27 56 30 81 4 25 14 62 22 81 8 19 12
39 9 45 -4 5 -3 9 2 8 24 -4 63 2 61 10 -4 11 71 71 88 71 8 0 14 5 14 10 0 6
-10 10 -22 10 -22 1 -22 1 -4 12 15 8 21 8 24 0 2 -7 8 -9 14 -6 13 8 59 -16
52 -28 -3 -4 -1 -8 5 -8 5 0 11 5 13 10 4 13 36 16 61 5 12 -5 17 -3 17 9 0 9
-7 16 -15 16 -8 0 -15 5 -15 10 0 20 26 9 42 -17 13 -21 18 -24 18 -10 0 9 11
23 25 29 14 6 25 18 26 27 0 10 4 7 10 -8 6 -16 14 -21 25 -17 9 4 24 1 32 -6
13 -11 15 -10 9 4 -5 15 -2 16 19 8 35 -14 62 -12 67 3 2 6 2 -1 -1 -18 -4
-28 -3 -29 11 -11 9 13 20 17 32 13 14 -6 15 -10 5 -22 -13 -16 -1 -21 16 -7
5 5 20 6 34 1 24 -7 24 -7 3 -8 -13 -1 -23 -6 -23 -13 0 -6 3 -8 7 -5 3 4 12
2 19 -4 10 -9 15 -7 20 5 9 23 24 20 24 -4 0 -11 7 -23 15 -26 8 -4 15 -12 15
-19 0 -7 14 -16 31 -20 24 -5 30 -11 26 -26 -3 -10 0 -17 6 -16 6 1 13 -9 15
-23 5 -32 17 -44 34 -34 25 16 46 14 51 -6 4 -17 27 -26 58 -22 11 2 18 -38 8
-44 -5 -3 -9 0 -9 5 0 6 -8 11 -17 11 -15 0 -13 -4 7 -20 27 -21 50 -26 50
-10 0 6 7 10 16 10 11 0 14 -5 10 -16 -3 -9 -3 -21 1 -27 4 -7 10 -2 14 13 6
24 7 24 15 5 5 -11 18 -20 29 -20 15 0 19 -6 18 -22 -3 -28 13 -30 20 -3 6 25
35 26 44 3 10 -27 27 -34 35 -15 6 15 8 14 14 -5 7 -26 15 -28 32 -11 9 9 13
8 17 -3 4 -10 20 -14 57 -12 56 1 103 -11 94 -26 -3 -5 8 -11 25 -13 16 -3 32
-1 35 4 9 15 44 9 38 -7 -5 -11 2 -14 28 -13 18 0 51 -5 73 -11 22 -7 53 -17
68 -21 16 -5 34 -7 41 -4 8 3 16 -2 19 -10 4 -9 13 -13 22 -10 12 5 13 10 6
17 -18 18 -12 28 9 17 11 -5 29 -14 40 -20 11 -5 46 -10 77 -10 32 0 70 -6 84
-14 14 -7 42 -16 62 -20 21 -4 37 -11 37 -16 0 -5 12 -7 28 -4 20 4 33 0 46
-15 11 -12 26 -21 34 -21 23 0 82 -40 82 -56 0 -8 9 -14 21 -14 11 0 18 -4 14
-9 -3 -5 -1 -12 5 -16 5 -3 10 0 10 7 0 10 2 11 8 0 5 -7 16 -10 25 -6 10 3
17 1 17 -5 0 -6 7 -11 16 -11 8 0 12 5 9 10 -10 16 11 12 25 -5 10 -12 9 -15
-5 -15 -27 0 -8 -14 23 -17 15 -1 42 -4 60 -6 27 -3 31 0 26 15 -6 20 6 24 23
7 6 -6 17 -9 23 -7 9 3 8 8 -4 20 -18 19 -21 38 -5 38 5 0 35 -24 66 -52 34
-33 64 -53 79 -53 13 -1 24 3 24 7 0 4 7 8 16 8 8 0 12 4 9 10 -3 6 1 7 9 4
14 -5 22 -38 17 -66 0 -5 2 -8 6 -8 12 0 6 -188 -11 -369 -17 -176 -20 -338
-7 -411 5 -25 9 -38 10 -30 1 8 6 47 11 85 6 39 12 95 13 125 5 73 39 223 97
425 38 133 55 185 90 289 22 66 40 135 40 153 0 21 5 33 14 33 18 0 29 85 27
215 -2 133 -5 152 -40 237 -17 40 -31 79 -31 88 -1 46 -244 440 -271 440 -5 0
-9 4 -9 9 0 12 -112 123 -210 211 -116 103 -130 116 -130 129 0 6 -11 17 -25
23 -14 6 -25 14 -25 18 0 4 -8 10 -17 14 -10 3 -38 19 -63 36 -25 16 -66 41
-92 55 -26 13 -51 31 -55 38 -9 15 -81 45 -198 80 -152 47 -661 108 -686 83z
m-1359 -580 c0 -3 -4 -8 -10 -11 -5 -3 -10 -1 -10 4 0 6 5 11 10 11 6 0 10 -2
10 -4z m590 -536 c0 -5 -2 -10 -4 -10 -3 0 -8 5 -11 10 -3 6 -1 10 4 10 6 0
11 -4 11 -10z m-367 -85 c-3 -8 -13 -15 -22 -15 -14 1 -14 2 1 14 10 7 14 17
10 21 -4 5 -2 5 5 1 7 -4 10 -13 6 -21z m717 -50 c4 0 12 -3 16 -7 4 -5 -5 -8
-19 -8 -15 0 -30 8 -36 19 -14 25 0 37 17 14 7 -10 17 -18 22 -18z m70 -87 c0
-5 -7 -8 -15 -8 -15 0 -20 21 -8 33 7 7 23 -11 23 -25z"/>
<path d="M2630 8941 c0 -5 5 -13 10 -16 6 -3 10 -2 10 4 0 5 -4 13 -10 16 -5
3 -10 2 -10 -4z"/>
<path d="M3280 8664 c0 -8 5 -12 10 -9 6 4 8 11 5 16 -9 14 -15 11 -15 -7z"/>
<path d="M3058 8643 c7 -3 16 -2 19 1 4 3 -2 6 -13 5 -11 0 -14 -3 -6 -6z"/>
<path d="M2914 8536 c-10 -8 -16 -17 -13 -20 3 -3 14 3 24 14 21 23 17 26 -11
6z"/>
<path d="M3656 8471 c-4 -5 -2 -12 3 -15 5 -4 12 -2 15 3 4 5 2 12 -3 15 -5 4
-12 2 -15 -3z"/>
<path d="M3768 8403 c6 -2 18 -2 25 0 6 3 1 5 -13 5 -14 0 -19 -2 -12 -5z"/>
<path d="M4203 8243 c9 -2 23 -2 30 0 6 3 -1 5 -18 5 -16 0 -22 -2 -12 -5z"/>
<path d="M2732 8044 c4 -21 22 -23 26 -1 2 10 -3 17 -13 17 -10 0 -15 -6 -13
-16z"/>
<path d="M3278 7963 c6 -2 18 -2 25 0 6 3 1 5 -13 5 -14 0 -19 -2 -12 -5z"/>
<path d="M3136 7951 c-3 -4 -24 -11 -47 -14 -23 -3 -47 -11 -53 -17 -8 -8 -7
-9 7 -4 13 5 16 2 11 -10 -3 -9 -1 -16 6 -16 6 0 8 -4 5 -10 -3 -5 -18 -10
-33 -10 -31 0 -105 -34 -95 -44 4 -3 -5 -6 -18 -6 -22 -1 -23 -2 -6 -14 24
-19 21 -26 -10 -27 -16 -1 -21 -3 -13 -5 8 -3 21 -17 28 -31 9 -20 9 -24 0
-15 -13 13 -58 16 -58 4 0 -4 5 -13 10 -18 8 -8 6 -15 -5 -24 -13 -11 -9 -16
32 -36 53 -27 53 -27 53 -14 0 6 -5 10 -11 10 -6 0 -18 7 -27 16 -15 15 -14
16 8 9 14 -4 29 -11 34 -16 17 -16 29 -10 15 8 -13 15 -10 16 31 11 25 -4 38
-4 30 -2 -9 3 -21 13 -28 24 -11 17 -10 20 7 20 11 0 32 -10 48 -23 69 -56 67
-54 58 -27 -7 23 -7 24 10 10 17 -14 17 -14 4 7 -8 14 -16 18 -20 11 -4 -6
-12 -7 -18 -3 -9 5 -7 11 5 20 14 10 23 9 48 -4 17 -9 34 -21 38 -28 5 -6 17
-9 28 -6 11 3 33 1 49 -5 21 -7 31 -7 33 0 3 7 12 6 26 -3 20 -12 24 -12 33 1
8 12 9 11 4 -6 -5 -20 -1 -22 65 -28 38 -4 70 -11 70 -17 0 -5 -11 -9 -24 -9
-14 0 -27 -4 -30 -9 -3 -4 6 -6 19 -3 31 5 33 -13 3 -21 -17 -5 -19 -9 -10
-20 10 -11 4 -14 -34 -15 -38 0 -43 2 -33 14 9 12 6 14 -22 14 -19 0 -43 -7
-53 -15 -25 -19 -31 -19 -51 1 -14 14 -21 15 -63 3 -26 -7 -53 -12 -59 -11 -7
2 -13 -4 -13 -13 0 -12 -13 -15 -62 -15 -61 -1 -98 -15 -98 -38 0 -6 -6 -9
-14 -6 -9 4 -17 -12 -26 -55 -7 -34 -18 -61 -24 -61 -6 0 -3 -5 6 -10 9 -6 19
-24 23 -40 10 -46 48 -70 111 -70 30 0 54 5 54 10 0 6 9 10 20 10 13 0 20 -7
20 -19 0 -26 26 -47 33 -27 5 13 12 12 46 -5 22 -10 47 -19 56 -19 8 0 15 -7
15 -15 0 -21 -26 -19 -50 5 -11 11 -26 17 -35 14 -20 -8 -19 -24 0 -24 9 0 18
-7 21 -15 4 -8 17 -15 30 -15 13 0 24 -4 24 -8 0 -5 21 -9 48 -11 26 -1 66 -8
88 -16 23 -8 52 -12 65 -9 69 15 115 28 126 37 7 5 29 9 50 9 21 0 32 3 26 5
-7 3 -13 9 -13 15 0 6 6 8 13 5 15 -5 59 27 50 37 -10 10 -53 7 -53 -4 0 -5
-17 -10 -37 -10 l-38 1 28 15 c31 17 157 27 157 13 0 -15 50 -10 66 6 8 8 21
12 30 8 12 -5 10 -11 -12 -34 -15 -16 -36 -29 -45 -29 -10 0 -20 -4 -23 -8 -9
-14 12 -35 28 -29 9 4 16 2 16 -2 0 -5 -6 -12 -12 -14 -10 -4 -10 -6 0 -6 7
-1 15 7 19 17 9 24 44 62 59 62 7 0 15 -6 17 -12 4 -8 6 -7 6 3 1 9 -6 20 -15
23 -8 3 -12 11 -8 17 5 8 9 8 14 -1 14 -22 23 10 10 35 -10 18 -9 27 3 46 8
13 18 41 22 62 5 32 10 38 26 34 15 -4 19 0 19 19 0 13 -5 24 -10 24 -7 0 -9
32 -4 98 6 88 5 100 -11 106 -12 4 -15 13 -11 31 5 18 2 25 -8 25 -8 0 -25 17
-37 38 -21 33 -75 92 -85 92 -2 0 -4 -8 -4 -17 0 -14 -6 -11 -23 11 -16 20
-26 25 -31 18 -4 -7 -4 -16 -1 -22 3 -5 2 -10 -2 -10 -5 0 -17 14 -27 31 -11
19 -22 27 -29 22 -19 -13 -49 -8 -102 16 -51 24 -142 40 -250 46 -33 2 -67 5
-75 8 -88 26 -145 33 -154 18z m-171 -181 c-3 -5 -1 -10 5 -10 6 0 8 -5 4 -11
-4 -7 -10 -7 -16 -1 -9 9 -3 32 8 32 3 0 2 -4 -1 -10z m55 6 c0 -11 -19 -15
-25 -6 -3 5 1 10 9 10 9 0 16 -2 16 -4z m60 -16 c0 -5 -7 -7 -15 -4 -8 4 -15
8 -15 10 0 2 7 4 15 4 8 0 15 -4 15 -10z m0 -34 c0 -3 -4 -8 -10 -11 -5 -3
-10 -1 -10 4 0 6 5 11 10 11 6 0 10 -2 10 -4z m280 -181 c0 -9 -6 -12 -16 -8
-13 5 -13 7 -2 14 17 11 18 11 18 -6z m184 -54 c32 -13 4 -21 -88 -25 -52 -3
-84 -1 -81 5 4 5 1 9 -5 9 -6 0 -8 5 -5 10 7 12 150 12 179 1z m-191 -28 c-7
-2 -19 -2 -25 0 -7 3 -2 5 12 5 14 0 19 -2 13 -5z m-45 -102 c1 -54 48 -118
102 -140 l25 -10 -28 0 c-15 -1 -35 3 -45 8 -9 4 -34 16 -55 26 -21 10 -49 30
-62 43 l-25 24 21 27 c16 20 47 44 65 51 1 0 1 -13 2 -29z m355 -52 c21 -14 0
-44 -40 -59 -44 -15 -69 -7 -43 13 8 7 23 30 33 52 17 36 20 38 30 20 5 -11
14 -23 20 -26z m177 -36 c0 -34 -21 -7 -47 62 -2 6 7 -3 21 -20 14 -16 26 -36
26 -42z m-630 -23 c0 -5 -7 -10 -15 -10 -8 0 -15 5 -15 10 0 6 7 10 15 10 8 0
15 -4 15 -10z m105 -40 c8 -7 20 -10 27 -7 7 2 19 -2 26 -9 7 -8 11 -14 10
-15 -15 -4 -56 -5 -65 -2 -7 3 -13 12 -13 20 0 11 -7 13 -24 9 -16 -4 -26 -1
-30 10 -5 12 0 14 25 10 16 -2 37 -10 44 -16z m220 -20 c-11 -5 -29 -8 -40 -8
-16 0 -15 2 5 8 34 11 60 11 35 0z m-98 -6 c-3 -3 -12 -4 -19 -1 -8 3 -5 6 6
6 11 1 17 -2 13 -5z"/>
<path d="M2737 7916 c-6 -16 2 -28 14 -20 12 7 11 34 0 34 -5 0 -11 -6 -14
-14z"/>
<path d="M5157 7899 c7 -7 15 -10 18 -7 3 3 -2 9 -12 12 -14 6 -15 5 -6 -5z"/>
<path d="M5240 7885 c0 -9 9 -15 21 -15 18 0 19 2 9 15 -7 8 -16 15 -21 15 -5
0 -9 -7 -9 -15z"/>
<path d="M4710 7870 c-9 -6 -10 -10 -3 -10 6 0 15 5 18 10 8 12 4 12 -15 0z"/>
<path d="M4796 7871 c-4 -6 -15 -11 -26 -11 -10 0 -32 -16 -50 -36 -17 -20
-34 -33 -37 -30 -4 3 -14 -1 -23 -9 -9 -8 -36 -16 -60 -19 -26 -2 -46 -10 -52
-20 -5 -9 -22 -16 -37 -16 -34 0 -76 -31 -76 -56 0 -24 -22 -29 -29 -7 -3 10
-4 -3 -2 -29 2 -26 0 -46 -4 -43 -7 4 -19 -26 -20 -47 0 -4 10 -17 23 -29 15
-15 18 -23 10 -26 -7 -3 -13 -9 -13 -15 0 -6 7 -7 16 -4 24 9 64 -4 64 -21 0
-12 -3 -13 -14 -4 -10 9 -16 9 -21 1 -4 -7 2 -14 13 -17 21 -5 23 -28 7 -65
-9 -22 7 -71 26 -76 11 -3 12 -2 0 6 -17 12 -4 20 48 27 46 5 47 3 26 -49 -18
-43 -24 -40 105 -56 52 -6 96 -13 99 -16 3 -2 0 -9 -7 -16 -8 -8 -22 -8 -51 0
-23 5 -41 7 -40 3 1 -13 119 -64 180 -77 75 -16 252 -19 229 -4 -8 5 -10 10
-5 11 6 1 -12 5 -40 10 -27 4 -76 14 -107 22 -34 9 -60 11 -64 6 -9 -15 -31
-10 -38 7 -4 9 -5 18 -4 19 2 1 40 -1 86 -4 45 -3 82 -3 82 1 0 5 -5 8 -11 8
-6 0 7 20 29 44 22 23 43 53 47 65 8 27 30 27 49 -1 21 -29 20 -48 -1 -64 -17
-12 -16 -13 7 -13 14 0 34 6 44 14 25 19 50 19 43 2 -6 -15 22 -19 38 -6 6 4
29 4 50 -1 25 -6 44 -5 49 0 6 6 20 10 33 10 18 0 23 7 29 38 3 20 15 46 25
58 19 20 19 21 -13 62 -18 23 -40 42 -50 42 -10 0 -18 6 -18 14 0 17 -68 27
-74 11 -3 -6 -8 -5 -14 4 -6 8 -19 12 -31 8 -12 -3 -21 -1 -21 4 0 5 -8 9 -18
9 -10 0 -27 6 -37 14 -13 9 -29 11 -54 5 -45 -11 -59 -11 -44 -1 6 4 -13 7
-42 7 -29 0 -51 -3 -48 -7 2 -5 -26 -8 -62 -8 l-66 0 3 32 c2 23 9 34 23 37
11 2 27 12 37 23 9 11 22 17 28 13 17 -11 72 16 66 31 -3 8 -4 14 -3 15 1 0
40 4 86 8 53 5 86 13 92 22 12 20 -17 24 -37 5 -17 -17 -69 -22 -59 -6 3 6 10
10 15 10 5 0 26 12 47 26 21 14 49 30 62 35 17 7 22 15 18 29 -4 15 0 20 13
20 10 0 20 5 22 11 2 6 14 8 31 4 19 -5 26 -12 23 -22 -5 -11 1 -13 28 -8 25
5 35 3 39 -8 4 -12 -1 -15 -24 -15 -16 1 -35 -4 -41 -10 -6 -6 -17 -8 -24 -5
-8 3 -14 1 -14 -5 0 -18 43 -22 61 -6 10 9 19 11 23 6 3 -6 14 -8 25 -5 10 2
26 -3 35 -12 11 -11 23 -14 34 -9 15 7 14 8 -5 11 -12 2 -24 11 -27 19 -6 16
5 19 20 5 5 -5 18 -5 29 -1 11 5 15 9 8 9 -7 1 -25 15 -42 33 -23 25 -32 29
-44 20 -10 -9 -20 -9 -40 1 -15 6 -27 15 -27 20 0 12 35 8 50 -5 12 -11 12
-10 1 5 -10 13 -24 17 -51 14 -21 -2 -45 2 -56 10 -10 7 -26 11 -36 7 -11 -3
-18 0 -18 8 0 11 -2 11 -8 0 -7 -10 -19 -11 -56 -2 -29 6 -53 7 -60 2 -6 -5
-31 -8 -56 -6 -189 15 -218 16 -224 5z m299 -31 c-3 -5 -11 -10 -16 -10 -6 0
-7 5 -4 10 3 6 11 10 16 10 6 0 7 -4 4 -10z m-48 -16 c-10 -11 -67 -13 -61 -3
3 5 19 9 36 9 17 0 28 -3 25 -6z m73 -14 c0 -5 -5 -10 -11 -10 -5 0 -7 5 -4
10 3 6 8 10 11 10 2 0 4 -4 4 -10z m-39 -362 c22 -6 39 -15 39 -20 0 -4 8 -8
18 -8 18 0 82 -27 82 -35 0 -4 -19 0 -40 8 -35 13 -140 30 -204 33 -38 2 -74
8 -81 14 -6 5 -15 7 -18 4 -9 -10 -28 6 -21 18 8 13 168 4 225 -14z m-322
-159 l19 -39 -26 6 c-44 10 -58 29 -44 59 15 32 26 26 51 -26z"/>
<path d="M4663 7843 c-13 -9 -23 -22 -23 -30 0 -9 9 -6 27 11 31 29 28 41 -4
19z"/>
<path d="M5240 7793 c0 -4 9 -14 21 -21 18 -12 20 -11 17 5 -3 17 -38 32 -38
16z"/>
<path d="M5210 7730 c-12 -8 -11 -10 8 -10 12 0 22 5 22 10 0 13 -11 13 -30 0z"/>
<path d="M5348 7713 c-22 -5 -24 -23 -3 -23 8 0 15 5 15 11 0 5 5 7 11 4 6 -4
8 -9 5 -12 -11 -11 24 -35 37 -25 7 5 25 12 41 16 26 6 27 6 12 -9 -9 -9 -16
-21 -16 -26 0 -5 -3 -8 -7 -7 -5 1 -28 -8 -53 -19 -39 -19 -42 -21 -19 -22 15
-1 33 6 40 15 10 12 24 15 55 10 25 -3 45 -1 52 6 18 18 14 32 -3 18 -12 -10
-19 -10 -28 -1 -9 9 -9 14 2 20 17 11 7 41 -13 41 -7 0 -27 -7 -42 -15 -27
-14 -30 -14 -43 5 -7 11 -16 19 -20 19 -3 -1 -14 -3 -23 -6z"/>
<path d="M5185 7701 c-6 -11 9 -23 19 -14 9 9 7 23 -3 23 -6 0 -12 -4 -16 -9z"/>
<path d="M5255 7680 l-20 -9 20 0 c11 0 27 4 35 9 13 9 13 10 0 9 -8 0 -24 -4
-35 -9z"/>
<path d="M5325 7670 c-3 -5 -1 -10 4 -10 6 0 11 5 11 10 0 6 -2 10 -4 10 -3 0
-8 -4 -11 -10z"/>
<path d="M5360 7660 c0 -5 5 -10 10 -10 6 0 10 5 10 10 0 6 -4 10 -10 10 -5 0
-10 -4 -10 -10z"/>
<path d="M2830 7651 c0 -5 11 -11 25 -13 28 -6 34 6 9 16 -22 8 -34 7 -34 -3z"/>
<path d="M3295 7630 c4 -6 11 -8 16 -5 14 9 11 15 -7 15 -8 0 -12 -5 -9 -10z"/>
<path d="M2890 7621 c0 -5 10 -11 23 -15 38 -10 43 -7 13 9 -33 17 -36 18 -36
6z"/>
<path d="M3385 7600 c-3 -6 1 -7 9 -4 18 7 21 14 7 14 -6 0 -13 -4 -16 -10z"/>
<path d="M5432 7596 c7 -8 18 -10 23 -6 6 5 24 10 40 13 19 2 11 5 -23 6 -45
1 -51 -1 -40 -13z"/>
<path d="M4865 7520 c-16 -7 -17 -9 -3 -9 9 -1 20 4 23 9 7 11 7 11 -20 0z"/>
<path d="M4000 7339 c0 -11 5 -17 10 -14 6 3 10 13 10 21 0 8 -4 14 -10 14 -5
0 -10 -9 -10 -21z"/>
<path d="M4020 7296 c0 -9 -8 -16 -17 -16 -15 0 -16 -2 -3 -10 8 -5 21 -10 28
-10 14 0 16 36 2 45 -5 3 -10 -1 -10 -9z"/>
<path d="M2555 7240 c3 -5 8 -10 11 -10 2 0 4 5 4 10 0 6 -5 10 -11 10 -5 0
-7 -4 -4 -10z"/>
<path d="M3988 7223 c-8 -16 -19 -44 -23 -63 -4 -19 -13 -39 -19 -43 -7 -6 -6
-7 4 -4 8 2 19 20 25 39 5 20 18 45 28 55 18 20 23 43 9 43 -4 0 -15 -12 -24
-27z"/>
<path d="M2415 7220 c-4 -11 -2 -42 3 -68 6 -26 13 -90 17 -142 8 -136 15
-185 26 -188 5 -2 9 -11 9 -20 0 -9 14 -62 30 -116 17 -55 30 -112 30 -127 0
-34 20 -80 31 -73 5 2 5 19 2 37 -5 27 -4 30 8 21 9 -8 22 -9 37 -3 l23 9 -33
52 c-18 29 -39 70 -47 92 -16 47 -16 202 0 242 6 16 13 60 15 97 5 76 10 67
-108 176 -35 32 -36 32 -43 11z"/>
<path d="M5705 7230 c-3 -5 -2 -10 4 -10 5 0 13 5 16 10 3 6 2 10 -4 10 -5 0
-13 -4 -16 -10z"/>
<path d="M5853 7200 c-12 -5 -41 -30 -65 -56 -24 -26 -49 -53 -57 -61 -11 -12
-12 -22 -2 -54 7 -21 16 -39 22 -39 5 0 9 -6 8 -12 -1 -7 2 -22 7 -33 13 -30
9 -162 -8 -225 -9 -30 -32 -89 -52 -131 -44 -94 -45 -104 -7 -85 24 13 46 42
41 55 -1 2 2 7 7 10 5 3 17 33 27 66 77 263 78 271 90 423 6 83 11 152 11 151
0 0 -10 -4 -22 -9z"/>
<path d="M3895 7139 c-4 -6 -5 -12 -2 -15 2 -3 7 2 10 11 7 17 1 20 -8 4z"/>
<path d="M2582 7069 c2 -7 10 -15 17 -17 8 -3 12 1 9 9 -2 7 -10 15 -17 17 -8
3 -12 -1 -9 -9z"/>
<path d="M2633 6925 c0 -27 2 -38 4 -22 2 15 2 37 0 50 -2 12 -4 0 -4 -28z"/>
<path d="M2633 6815 c0 -27 2 -38 4 -22 2 15 2 37 0 50 -2 12 -4 0 -4 -28z"/>
<path d="M2642 6705 c0 -16 2 -22 5 -12 2 9 2 23 0 30 -3 6 -5 -1 -5 -18z"/>
<path d="M5650 6705 c0 -8 5 -15 10 -15 6 0 10 7 10 15 0 8 -4 15 -10 15 -5 0
-10 -7 -10 -15z"/>
<path d="M3792 6421 c-18 -9 -30 -20 -27 -23 4 -3 -2 -9 -13 -12 -28 -9 -34
-33 -16 -61 29 -44 91 -70 122 -52 18 12 15 55 -5 60 -14 4 -13 5 4 6 12 0 28
-5 35 -12 7 -6 29 -11 48 -10 51 4 120 -7 120 -18 0 -6 -7 -17 -15 -26 -8 -8
-13 -19 -10 -24 4 -5 2 -9 -3 -9 -6 0 -13 8 -17 18 -6 16 -8 16 -22 -3 -11
-14 -17 -16 -20 -7 -3 6 -9 12 -14 12 -4 0 -6 -7 -3 -15 4 -9 0 -15 -10 -15
-9 0 -16 -6 -16 -13 0 -19 -42 -54 -87 -72 -21 -9 -48 -28 -61 -43 -22 -26
-23 -26 -16 -3 4 16 3 21 -5 17 -6 -4 -11 -14 -11 -22 0 -12 -8 -13 -37 -8
-31 6 -35 4 -30 -10 11 -28 -3 -48 -30 -41 -32 8 -80 -14 -87 -38 -3 -11 -9
-16 -16 -12 -6 4 -23 -4 -37 -16 l-25 -24 6 23 c4 12 4 22 -1 22 -16 -1 -43
-28 -43 -43 0 -9 -9 -21 -19 -27 -26 -13 -34 -13 -25 3 6 8 3 8 -9 -1 -21 -18
-57 -93 -57 -120 0 -12 -5 -22 -11 -22 -6 0 -9 -11 -7 -24 1 -13 -3 -31 -11
-40 -8 -9 -11 -19 -8 -23 4 -3 2 -14 -4 -24 -13 -25 -99 -28 -99 -4 0 8 8 15
18 16 13 0 13 2 3 6 -21 8 -82 65 -76 71 13 14 -22 32 -61 32 -24 0 -44 5 -44
10 0 6 -33 10 -80 10 -59 0 -82 -4 -92 -15 -7 -9 -18 -21 -24 -27 -13 -14 5
-58 24 -58 6 0 12 -4 12 -10 0 -18 -18 -10 -39 18 -30 41 -25 13 10 -54 44
-82 49 -89 139 -180 75 -76 80 -84 81 -125 1 -72 9 -132 22 -161 14 -32 32
-38 23 -8 -3 11 -9 30 -13 41 -4 16 -2 20 8 17 8 -3 14 -15 13 -26 0 -18 4
-20 23 -16 19 5 23 2 23 -15 0 -14 9 -25 25 -31 14 -5 25 -16 25 -25 0 -8 7
-15 15 -15 8 0 15 -4 15 -10 0 -5 -6 -10 -14 -10 -19 0 -27 -13 -17 -29 7 -10
12 -10 28 0 12 7 29 9 39 5 17 -7 17 -8 2 -17 -18 -10 -13 -49 9 -62 18 -11
17 -27 -2 -27 -8 0 -15 5 -15 10 0 6 -4 10 -10 10 -5 0 -10 -9 -10 -19 0 -22
20 -40 20 -19 1 19 29 -34 30 -54 0 -10 5 -18 11 -18 7 0 8 14 4 40 -4 26 -3
40 4 40 6 0 12 -17 12 -37 1 -21 2 -43 3 -49 0 -6 20 -29 44 -53 23 -23 42
-48 42 -56 0 -9 6 -12 15 -9 11 4 19 -4 26 -26 8 -21 14 -28 19 -20 6 9 10 6
15 -9 3 -11 12 -21 18 -21 7 0 20 -9 30 -20 9 -11 24 -20 32 -20 11 0 15 -11
15 -40 0 -22 -4 -40 -10 -40 -5 0 -10 7 -10 15 0 9 -7 18 -15 21 -8 4 -15 17
-15 31 0 20 -4 24 -19 20 -13 -3 -21 1 -24 14 -3 11 -9 19 -14 18 -24 -4 -41
3 -51 24 -9 19 -11 17 -11 -23 0 -31 3 -39 8 -25 7 17 8 17 15 -8 6 -26 26
-38 26 -17 0 23 19 8 22 -17 2 -20 8 -27 21 -25 10 2 17 -3 17 -13 0 -8 7 -15
15 -15 8 0 15 -4 15 -10 0 -5 7 -10 15 -10 8 0 15 5 15 10 0 6 9 10 20 10 22
0 27 16 8 23 -7 2 -10 7 -7 11 3 3 33 -5 67 -19 34 -14 71 -25 82 -25 11 0 20
-7 20 -15 0 -17 26 -21 32 -5 2 7 13 7 35 0 24 -9 37 -8 54 1 19 9 24 9 34 -5
15 -20 24 -20 63 0 17 8 50 15 72 16 22 0 43 4 46 9 3 5 18 9 33 9 32 0 111
36 111 50 0 6 7 10 16 10 19 0 160 66 168 79 3 4 -12 13 -33 20 -47 14 -64 14
-56 1 3 -5 0 -10 -8 -10 -7 0 -14 7 -14 15 0 10 17 20 45 27 29 7 46 18 50 30
2 10 13 18 23 18 11 0 18 5 17 11 -2 6 3 14 10 16 6 3 12 0 12 -6 0 -6 5 -11
10 -11 6 0 10 7 8 16 -2 9 6 21 17 28 11 6 22 14 25 18 3 3 18 10 33 13 15 4
27 10 27 14 0 3 17 15 38 26 20 11 60 35 87 55 28 19 66 44 85 54 19 11 48 32
64 48 16 15 38 30 48 34 10 3 18 10 18 15 0 5 5 9 10 9 10 0 51 33 103 83 16
15 33 27 37 27 5 0 15 10 21 23 7 12 17 25 23 29 6 4 11 11 11 16 0 13 32 42
39 35 3 -4 6 4 6 16 0 13 4 20 11 16 13 -9 40 26 34 43 -3 8 0 12 7 10 19 -7
127 167 112 180 -4 4 -9 2 -11 -5 -2 -7 -20 -17 -40 -24 -32 -10 -35 -14 -31
-44 2 -19 0 -31 -5 -28 -5 3 -6 -3 -3 -13 5 -17 1 -19 -39 -16 -30 3 -45 9
-45 18 0 21 -14 17 -40 -11 -14 -15 -35 -25 -51 -25 -20 0 -33 -9 -48 -32 -11
-18 -21 -27 -21 -19 0 8 -6 19 -14 25 -16 13 -32 76 -19 76 5 0 14 -12 20 -27
l11 -28 1 28 c1 15 6 27 11 27 6 0 10 7 10 15 0 18 -17 20 -22 4 -3 -9 -10 -9
-26 0 -18 10 -22 9 -22 -4 0 -8 -6 -15 -14 -15 -12 0 -12 -7 -4 -37 7 -27 7
-38 -1 -41 -6 -2 -11 -10 -11 -17 0 -8 -7 -11 -20 -8 -14 4 -21 -1 -25 -19 -4
-13 -5 -28 -4 -34 4 -21 -2 -34 -26 -59 -19 -18 -22 -25 -10 -25 8 0 15 -8 14
-17 0 -11 -3 -13 -6 -5 -8 21 -33 13 -43 -13 -5 -14 -17 -25 -26 -25 -10 0
-14 -5 -10 -16 3 -8 2 -12 -4 -9 -6 3 -10 -1 -10 -9 0 -9 -9 -21 -20 -28 -11
-7 -20 -16 -20 -19 0 -4 -14 -21 -30 -39 -25 -27 -33 -30 -45 -20 -12 10 -15
10 -15 -2 0 -8 5 -19 11 -25 7 -7 4 -12 -10 -16 -14 -3 -19 -1 -15 6 4 7 -3 2
-14 -10 -12 -12 -30 -24 -42 -28 -11 -3 -20 -14 -21 -23 0 -15 -1 -14 -8 1 -6
17 -8 17 -20 4 -7 -9 -18 -14 -26 -11 -7 3 -16 0 -20 -6 -6 -9 -10 -9 -16 1
-6 11 -16 11 -48 3 -34 -9 -41 -9 -41 3 0 10 -6 13 -16 9 -10 -4 -26 5 -43 23
-20 22 -34 28 -50 24 -24 -6 -29 15 -9 35 9 9 9 12 0 12 -7 0 -12 -4 -12 -10
0 -23 -32 -8 -41 20 -6 17 -15 30 -19 30 -5 0 -17 3 -27 6 -15 5 -15 4 -3 -5
9 -7 10 -11 3 -11 -6 0 -19 10 -27 21 -15 21 -16 21 -42 4 -16 -10 -29 -13
-33 -7 -10 16 -91 13 -91 -4 0 -16 -9 -18 -29 -5 -7 5 -11 13 -7 19 3 5 -1 12
-9 16 -9 3 -19 -5 -28 -22 -9 -19 -19 -26 -36 -24 -18 2 -21 -2 -16 -18 3 -11
2 -20 -4 -20 -5 0 -11 8 -14 18 -3 13 -6 11 -15 -11 -10 -23 -15 -26 -31 -17
-26 13 -31 13 -31 -5 0 -22 -101 -24 -127 -3 -7 6 -20 8 -28 4 -8 -3 -15 -1
-15 4 0 5 -16 20 -35 32 -19 13 -35 30 -35 39 0 9 -11 24 -25 33 -14 9 -25 25
-25 36 0 10 -7 23 -16 28 -11 6 -15 18 -12 34 4 21 1 24 -14 20 -10 -2 -18 1
-18 7 0 6 7 11 15 11 8 0 15 6 15 14 0 8 6 17 13 19 6 3 -1 6 -16 6 -25 1 -27
4 -21 24 3 12 11 24 15 25 5 2 9 14 9 27 0 17 7 25 23 27 20 4 18 6 -13 20
-19 8 -44 25 -54 37 -17 19 -18 21 -2 21 13 0 16 5 11 20 -6 18 -3 20 19 14
33 -8 57 6 28 17 -12 5 -22 16 -21 26 0 11 3 13 6 6 2 -7 18 -13 35 -13 26 0
29 2 18 15 -21 25 1 37 34 20 35 -19 40 -19 32 0 -3 9 0 15 9 15 7 0 20 7 28
15 13 13 16 13 27 0 7 -8 19 -15 26 -15 8 0 14 -5 14 -11 0 -6 7 -8 16 -5 9 4
13 2 8 -5 -4 -6 0 -15 7 -20 12 -8 12 -11 -1 -19 -13 -9 -13 -11 0 -19 10 -7
20 -5 31 5 20 18 27 11 21 -21 -3 -16 -11 -25 -23 -25 -21 0 -25 -21 -8 -51
10 -20 11 -20 30 -3 18 16 19 16 19 -4 0 -12 -5 -22 -11 -22 -5 0 -8 -4 -5 -9
3 -5 15 -7 26 -4 13 3 26 -1 33 -11 9 -12 31 -16 90 -18 54 -1 77 -5 77 -14 0
-7 8 -13 18 -12 9 0 45 -3 80 -7 43 -6 62 -4 62 3 0 7 21 10 59 8 33 -2 62 -1
65 2 7 6 50 12 129 16 87 6 123 27 144 86 19 54 28 61 36 30 3 -11 13 -20 23
-20 16 0 16 1 1 18 -16 17 -15 20 3 40 12 12 28 22 37 22 14 0 14 2 -2 20 -18
20 -18 20 27 14 26 -4 48 -2 51 3 4 6 18 8 32 6 13 -3 22 -10 19 -15 -8 -12
27 -39 44 -33 7 3 12 -5 12 -20 0 -28 15 -34 24 -10 7 19 36 20 36 1 0 -8 4
-17 9 -20 5 -4 7 4 4 15 -4 14 0 25 11 31 29 16 63 100 60 149 -4 68 -25 132
-51 156 -12 12 -23 28 -23 34 0 7 -3 9 -7 5 -4 -3 -22 8 -40 26 -33 32 -42 26
-22 -15 9 -19 7 -18 -10 3 -11 14 -21 28 -21 33 0 4 -5 7 -11 7 -7 0 -18 8
-25 17 -7 10 -16 15 -20 11 -4 -4 -1 -15 7 -24 13 -16 12 -16 -11 -4 -14 7
-32 19 -42 27 -11 10 -18 11 -23 3 -9 -15 -25 -2 -19 15 8 19 -41 31 -60 16
-11 -9 -26 0 -71 45 -31 31 -60 53 -64 48 -3 -5 -16 -18 -29 -28 -20 -18 -22
-18 -16 -2 7 17 -23 49 -38 40 -4 -2 -9 0 -13 6 -3 5 1 10 9 10 9 0 16 3 16 8
0 11 -16 34 -26 35 -5 1 -8 8 -6 15 4 19 -16 14 -21 -5 -4 -16 -5 -16 -6 -1 0
9 6 24 15 32 8 9 12 21 9 27 -4 5 1 19 11 30 19 21 13 38 -8 23 -19 -14 -65
-17 -72 -5 -4 6 -20 8 -38 4 -22 -4 -29 -3 -24 5 4 7 1 12 -8 12 -8 0 -18 -5
-21 -11 -4 -6 -14 -8 -22 -5 -8 3 -23 1 -34 -4 -14 -8 -19 -7 -20 2 0 18 -113
111 -152 125 -45 16 -116 14 -155 -6z m296 -161 c-7 -11 -16 -20 -20 -20 -5 0
-3 9 4 20 7 11 16 20 20 20 5 0 3 -9 -4 -20z m115 -145 c-3 -8 -9 -15 -14 -15
-10 0 -12 24 -3 33 11 11 24 -3 17 -18z m-368 -15 c-10 -11 -20 -18 -23 -15
-7 6 18 35 31 35 5 0 2 -9 -8 -20z m633 -18 c2 -7 -3 -12 -12 -12 -9 0 -16 7
-16 16 0 17 22 14 28 -4z m-728 -22 c0 -5 -2 -10 -4 -10 -3 0 -8 5 -11 10 -3
6 -1 10 4 10 6 0 11 -4 11 -10z m780 -34 c0 -8 4 -16 9 -18 4 -1 5 -11 2 -21
-6 -16 -9 -15 -21 10 -8 15 -19 31 -25 35 -5 4 0 8 13 8 12 0 22 -6 22 -14z
m90 -26 c0 -5 -4 -10 -10 -10 -5 0 -10 5 -10 10 0 6 5 10 10 10 6 0 10 -4 10
-10z m-126 -27 c4 -9 2 -21 -4 -27 -8 -8 -9 -6 -5 7 6 13 2 17 -14 17 -12 0
-21 5 -21 10 0 17 37 11 44 -7z m-341 -28 c20 -3 37 -10 37 -16 0 -12 62 -8
71 5 8 10 148 15 154 6 3 -4 25 -11 49 -14 24 -4 50 -14 56 -21 7 -8 11 -15 9
-16 -36 -6 -60 -6 -64 2 -10 14 -45 10 -51 -6 -7 -17 -34 -21 -34 -5 0 6 5 10
12 10 8 0 9 3 1 11 -7 7 -25 5 -62 -7 -51 -16 -62 -27 -38 -38 6 -3 -13 -2
-43 1 -30 3 -56 10 -58 14 -2 5 -14 9 -27 9 -13 0 -27 5 -30 10 -3 6 -17 10
-30 10 -13 0 -30 7 -39 15 -8 8 -24 15 -35 15 -11 0 -23 5 -27 12 -4 7 -3 8 4
4 7 -4 20 -2 29 3 17 10 31 9 116 -4z m424 -47 c-3 -8 -6 -5 -6 6 -1 11 2 17
5 13 3 -3 4 -12 1 -19z m-339 -78 c-13 -20 -38 -28 -38 -12 0 12 23 32 37 32
11 0 11 -4 1 -20z m-1265 -75 c-6 -17 -25 -15 -31 3 -2 7 5 12 17 12 14 0 19
-5 14 -15z m147 3 c0 -7 -4 -19 -9 -26 -7 -11 -10 -10 -15 3 -10 26 -7 35 9
35 8 0 15 -6 15 -12z m661 -45 c-9 -16 -10 -16 -11 -1 0 9 -6 18 -12 21 -9 3
-7 9 7 20 18 14 20 14 23 -3 2 -11 -1 -27 -7 -37z m59 47 c0 -5 3 -9 8 -8 4 0
15 -2 25 -7 9 -4 28 -5 42 -3 13 3 22 1 19 -3 -3 -5 13 -9 35 -9 23 0 41 -4
41 -10 0 -5 7 -7 15 -4 8 4 22 1 30 -6 9 -7 18 -10 21 -8 3 3 22 1 42 -4 20
-5 54 -9 75 -8 22 0 45 -4 53 -10 10 -9 20 -7 44 10 16 12 34 19 39 15 5 -3
13 -1 16 5 4 6 15 8 25 5 10 -3 21 -1 24 4 4 6 12 8 19 5 7 -2 30 2 50 11 53
22 124 20 137 -4 14 -27 13 -31 -8 -31 -10 0 -25 -11 -32 -25 -8 -14 -24 -28
-37 -31 -13 -4 -23 -12 -23 -19 0 -17 -91 -55 -134 -55 -23 0 -39 -6 -45 -17
-9 -16 -12 -16 -21 -3 -8 12 -12 12 -18 3 -9 -14 -27 -15 -112 -7 -30 3 -69 5
-86 5 -20 -1 -34 5 -38 14 -3 8 -12 15 -19 15 -8 0 -20 7 -27 15 -7 8 -16 13
-20 10 -10 -6 -60 19 -72 37 -8 10 -11 10 -15 1 -8 -22 -23 -14 -23 11 0 13
-3 32 -6 41 -6 14 -8 13 -21 -5 -8 -11 -19 -20 -25 -20 -6 0 -6 6 2 15 11 13
10 14 -4 9 -19 -7 -21 11 -6 50 9 25 30 36 30 16z m850 -125 c0 -8 -4 -15 -10
-15 -5 0 -10 7 -10 15 0 8 5 15 10 15 6 0 10 -7 10 -15z m-1365 -33 c-6 -8
-35 12 -35 24 0 11 4 10 18 -3 10 -10 18 -19 17 -21z m55 -67 c0 -5 -5 -3 -10
5 -5 8 -10 20 -10 25 0 6 5 3 10 -5 5 -8 10 -19 10 -25z m1960 27 c0 -13 -12
-22 -22 -16 -10 6 -1 24 13 24 5 0 9 -4 9 -8z m-1550 -52 c0 -5 -4 -10 -10
-10 -5 0 -10 5 -10 10 0 6 5 10 10 10 6 0 10 -4 10 -10z m1340 -75 c0 -8 -2
-15 -4 -15 -2 0 -6 7 -10 15 -3 8 -1 15 4 15 6 0 10 -7 10 -15z m100 11 c0 -3
-4 -8 -10 -11 -5 -3 -10 -1 -10 4 0 6 5 11 10 11 6 0 10 -2 10 -4z m20 -16 c0
-5 -5 -10 -11 -10 -5 0 -7 5 -4 10 3 6 8 10 11 10 2 0 4 -4 4 -10z m-1100
-316 c0 -14 -3 -15 -17 -3 -10 7 -20 15 -22 16 -2 2 5 3 17 3 14 0 22 -6 22
-16z m67 -20 c-3 -3 -12 -4 -19 -1 -8 3 -5 6 6 6 11 1 17 -2 13 -5z m-867 -77
c0 -5 -4 -5 -10 -2 -5 3 -10 14 -10 23 0 15 2 15 10 2 5 -8 10 -19 10 -23z
m390 13 c0 -5 -5 -10 -11 -10 -5 0 -7 5 -4 10 3 6 8 10 11 10 2 0 4 -4 4 -10z
m690 -314 c0 -3 -4 -8 -10 -11 -5 -3 -10 -1 -10 4 0 6 5 11 10 11 6 0 10 -2
10 -4z m-80 -35 c0 -13 -29 -35 -37 -27 -3 3 -1 6 5 6 7 0 12 7 12 15 0 8 5
15 10 15 6 0 10 -4 10 -9z"/>
<path d="M4160 5580 c0 -11 4 -20 9 -20 5 0 7 9 4 20 -3 11 -7 20 -9 20 -2 0
-4 -9 -4 -20z"/>
<path d="M4465 6410 c-41 -19 -69 -41 -94 -73 -12 -16 -10 -17 34 -13 25 3 52
9 58 13 7 5 27 10 45 12 30 2 38 -5 33 -33 -1 -5 4 -13 10 -17 19 -11 80 56
72 79 -20 55 -83 68 -158 32z"/>
<path d="M2665 6310 c-16 -6 -14 -8 12 -7 18 0 30 4 27 9 -6 10 -12 9 -39 -2z"/>
<path d="M2722 6155 c0 -16 2 -22 5 -12 2 9 2 23 0 30 -3 6 -5 -1 -5 -18z"/>
<path d="M4408 6141 c-12 -4 -15 -10 -8 -21 7 -11 12 -12 21 -3 16 16 8 32
-13 24z"/>
<path d="M2736 6095 c-3 -8 -1 -15 4 -15 6 0 10 7 10 15 0 8 -2 15 -4 15 -2 0
-6 -7 -10 -15z"/>
<path d="M2760 6060 c0 -11 5 -20 10 -20 6 0 10 9 10 20 0 11 -4 20 -10 20 -5
0 -10 -9 -10 -20z"/>
<path d="M3655 6060 c-3 -5 1 -10 9 -10 9 0 16 5 16 10 0 6 -4 10 -9 10 -6 0
-13 -4 -16 -10z"/>
<path d="M2742 6030 c0 -19 2 -27 5 -17 2 9 2 25 0 35 -3 9 -5 1 -5 -18z"/>
<path d="M2770 5990 c0 -5 5 -10 10 -10 6 0 10 5 10 10 0 6 -4 10 -10 10 -5 0
-10 -4 -10 -10z"/>
<path d="M2797 5980 c-4 -14 -6 -38 -6 -55 l1 -30 9 34 c6 18 9 43 7 55 -3 20
-4 19 -11 -4z"/>
<path d="M2754 5946 c4 -26 13 -64 21 -84 l14 -37 0 32 c1 17 -3 35 -9 38 -5
3 -10 24 -10 45 0 21 -5 42 -11 46 -9 5 -10 -6 -5 -40z"/>
<path d="M5491 5974 c0 -11 3 -14 6 -6 3 7 2 16 -1 19 -3 4 -6 -2 -5 -13z"/>
<path d="M2865 5930 c-3 -5 -1 -10 4 -10 6 0 11 5 11 10 0 6 -2 10 -4 10 -3 0
-8 -4 -11 -10z"/>
<path d="M2893 5884 c10 -62 27 -63 19 -1 -2 20 -9 37 -14 37 -7 0 -8 -14 -5
-36z"/>
<path d="M2960 5910 c0 -5 5 -10 10 -10 6 0 10 5 10 10 0 6 -4 10 -10 10 -5 0
-10 -4 -10 -10z"/>
<path d="M3020 5884 c0 -18 24 -44 41 -44 8 0 7 6 -4 18 -10 10 -17 24 -17 30
0 7 -4 12 -10 12 -5 0 -10 -7 -10 -16z"/>
<path d="M2947 5877 c-11 -29 -8 -37 13 -37 11 0 20 5 20 10 0 6 -4 10 -9 10
-5 0 -11 8 -13 18 -3 16 -4 16 -11 -1z"/>
<path d="M5446 5837 c3 -10 9 -15 12 -12 3 3 0 11 -7 18 -10 9 -11 8 -5 -6z"/>
<path d="M2796 5824 c-3 -9 -6 -21 -5 -27 0 -7 4 -2 10 11 5 13 13 20 19 17 5
-3 10 -1 10 4 0 17 -27 13 -34 -5z"/>
<path d="M3200 5749 c0 -5 5 -7 10 -4 6 3 10 8 10 11 0 2 -4 4 -10 4 -5 0 -10
-5 -10 -11z"/>
<path d="M5380 5649 c0 -11 5 -17 10 -14 6 3 10 13 10 21 0 8 -4 14 -10 14 -5
0 -10 -9 -10 -21z"/>
<path d="M3596 5625 c-9 -26 -7 -32 5 -12 6 10 9 21 6 23 -2 3 -7 -2 -11 -11z"/>
<path d="M3628 5603 c7 -3 16 -2 19 1 4 3 -2 6 -13 5 -11 0 -14 -3 -6 -6z"/>
<path d="M5250 5530 c0 -5 7 -10 15 -10 8 0 15 5 15 10 0 6 -7 10 -15 10 -8 0
-15 -4 -15 -10z"/>
<path d="M3440 5510 c0 -5 6 -10 14 -10 8 0 18 5 21 10 3 6 -3 10 -14 10 -12
0 -21 -4 -21 -10z"/>
<path d="M4920 5502 c0 -9 9 -23 21 -30 18 -11 20 -11 15 0 -3 7 -9 21 -12 31
-8 22 -24 22 -24 -1z"/>
<path d="M4900 5450 c0 -5 5 -10 10 -10 6 0 10 5 10 10 0 6 -4 10 -10 10 -5 0
-10 -4 -10 -10z"/>
<path d="M3700 5424 c0 -8 5 -12 10 -9 6 3 10 10 10 16 0 5 -4 9 -10 9 -5 0
-10 -7 -10 -16z"/>
<path d="M3885 5380 c3 -5 13 -10 21 -10 8 0 14 5 14 10 0 6 -9 10 -21 10 -11
0 -17 -4 -14 -10z"/>
<path d="M3997 5216 c-4 -10 -1 -13 8 -9 8 3 12 9 9 14 -7 12 -11 11 -17 -5z"/>
<path d="M4040 5220 c0 -5 5 -10 10 -10 6 0 10 5 10 10 0 6 -4 10 -10 10 -5 0
-10 -4 -10 -10z"/>
<path d="M3080 5140 c0 -35 3 -60 7 -56 7 7 5 108 -3 115 -2 2 -4 -24 -4 -59z"/>
<path d="M3133 5179 c-6 -8 -14 -37 -16 -64 -3 -28 -3 -42 0 -32 2 9 11 17 19
17 17 0 19 17 2 23 -10 3 -10 7 0 20 8 9 12 24 10 33 -3 15 -5 15 -15 3z"/>
<path d="M3160 5135 c0 -8 5 -15 10 -15 6 0 10 7 10 15 0 8 -4 15 -10 15 -5 0
-10 -7 -10 -15z"/>
<path d="M5211 4988 c1 -62 5 -140 10 -172 4 -33 4 -66 0 -74 -5 -8 -4 -33 2
-55 8 -30 7 -42 -1 -45 -7 -2 -9 -15 -5 -33 3 -18 -2 -54 -12 -87 -33 -104
-68 -197 -77 -203 -5 -3 -10 -17 -10 -30 -1 -13 -6 -30 -12 -38 -16 -21 -35
-54 -42 -73 -3 -10 -12 -18 -18 -18 -14 0 -38 -68 -30 -82 4 -5 -3 -12 -15
-15 -19 -5 -39 -39 -28 -49 6 -6 -40 -54 -51 -54 -4 0 -15 -9 -25 -20 -9 -11
-13 -20 -7 -20 5 0 8 -20 7 -45 -1 -25 -5 -45 -9 -45 -5 0 -8 5 -8 10 0 6 -4
10 -10 10 -5 0 -10 -20 -10 -44 0 -29 -5 -46 -14 -49 -10 -4 -13 -18 -12 -41
2 -20 0 -36 -4 -36 -12 0 -25 -45 -29 -97 0 -14 -8 -23 -17 -23 -9 0 -18 -9
-21 -20 -3 -11 -14 -20 -24 -20 -11 0 -19 -7 -19 -15 0 -8 -6 -15 -13 -15 -7
0 -18 -9 -25 -20 -7 -11 -20 -20 -29 -20 -15 0 -14 -2 3 -14 10 -8 21 -10 22
-5 2 5 8 9 13 9 6 0 7 -5 3 -11 -4 -7 4 -20 17 -30 22 -17 23 -19 7 -31 -15
-11 -15 -15 -2 -26 12 -11 15 -10 20 2 9 23 24 20 24 -4 0 -11 9 -25 20 -32
28 -18 25 -28 -7 -29 -17 -1 -21 -3 -10 -6 18 -5 24 -23 7 -23 -5 0 -10 -5
-10 -11 0 -6 -7 -17 -15 -26 -9 -8 -14 -18 -11 -21 7 -6 126 115 126 128 0 6
4 10 8 10 13 0 67 97 117 210 26 58 55 123 65 145 10 22 46 105 80 185 34 80
75 173 91 208 16 35 29 66 29 68 0 3 17 40 39 83 21 42 46 108 55 147 31 128
38 154 46 149 16 -10 20 174 5 237 -19 82 -59 191 -86 234 -26 43 -80 104 -91
104 -5 0 -8 -51 -7 -112z m-471 -1568 c0 -5 -4 -10 -10 -10 -5 0 -10 5 -10 10
0 6 5 10 10 10 6 0 10 -4 10 -10z"/>
<path d="M3085 5040 c-3 -6 1 -7 9 -4 18 7 21 14 7 14 -6 0 -13 -4 -16 -10z"/>
<path d="M3025 4975 c-34 -59 -62 -155 -71 -245 -7 -70 2 -164 14 -156 4 2 15
-37 25 -87 23 -116 66 -244 118 -355 81 -170 141 -303 267 -592 36 -84 85
-181 93 -186 13 -8 11 9 -4 31 -8 11 -16 29 -19 41 -4 17 -1 20 16 17 20 -4
21 -1 18 35 -3 34 -1 41 17 47 24 7 27 20 9 29 -10 5 -10 7 0 12 8 4 11 18 7
42 -5 29 -4 34 5 22 9 -12 10 -10 4 10 -4 14 -7 46 -6 73 1 26 -2 47 -6 47 -5
0 -15 11 -22 25 -11 20 -11 27 0 40 10 12 10 15 0 15 -9 0 -10 10 -6 35 6 29
2 40 -19 62 -31 35 -32 41 0 35 29 -5 35 17 10 38 -18 15 -19 42 -3 58 9 9 8
12 -6 12 -24 0 -106 68 -106 89 0 9 -10 21 -22 26 -13 6 -25 21 -26 35 -2 13
-17 39 -33 58 -18 20 -29 44 -29 62 0 27 -17 54 -40 62 -6 2 -12 22 -13 46 0
23 -5 42 -10 42 -4 0 -14 16 -22 34 -8 19 -22 39 -31 44 -9 5 -17 26 -20 51
-2 23 -11 58 -20 76 -10 21 -15 52 -12 80 2 26 -1 45 -7 45 -6 0 -9 33 -7 86
2 48 -1 91 -6 96 -6 6 -20 -8 -37 -37z m42 -212 c-3 -10 -5 -2 -5 17 0 19 2
27 5 18 2 -10 2 -26 0 -35z m373 -693 c0 -5 -6 -10 -14 -10 -8 0 -18 5 -21 10
-3 6 3 10 14 10 12 0 21 -4 21 -10z"/>
<path d="M4458 4993 c7 -3 16 -2 19 1 4 3 -2 6 -13 5 -11 0 -14 -3 -6 -6z"/>
<path d="M3088 4896 c-7 -39 -4 -55 8 -44 3 3 4 23 2 44 l-3 39 -7 -39z"/>
<path d="M4740 4890 c0 -5 5 -10 10 -10 6 0 10 5 10 10 0 6 -4 10 -10 10 -5 0
-10 -4 -10 -10z"/>
<path d="M3101 4814 c0 -11 3 -14 6 -6 3 7 2 16 -1 19 -3 4 -6 -2 -5 -13z"/>
<path d="M4548 4803 c6 -2 18 -2 25 0 6 3 1 5 -13 5 -14 0 -19 -2 -12 -5z"/>
<path d="M4498 4793 c6 -2 18 -2 25 0 6 3 1 5 -13 5 -14 0 -19 -2 -12 -5z"/>
<path d="M3102 4750 c0 -14 2 -19 5 -12 2 6 2 18 0 25 -3 6 -5 1 -5 -13z"/>
<path d="M3365 4760 c-3 -5 3 -10 15 -10 12 0 18 5 15 10 -3 6 -10 10 -15 10
-5 0 -12 -4 -15 -10z"/>
<path d="M4455 4751 c-3 -6 4 -15 17 -22 16 -9 23 -9 26 0 2 6 10 11 18 11 8
0 14 5 14 10 0 14 -27 12 -34 -2 -5 -10 -7 -10 -12 0 -7 14 -20 16 -29 3z"/>
<path d="M3377 4724 c-9 -9 4 -35 14 -28 5 3 9 12 9 20 0 14 -12 19 -23 8z"/>
<path d="M3120 4622 c0 -4 9 -13 20 -20 11 -7 20 -9 20 -4 0 4 -9 13 -20 20
-11 7 -20 9 -20 4z"/>
<path d="M3680 4540 c0 -6 7 -10 15 -10 8 0 15 2 15 4 0 2 -7 6 -15 10 -8 3
-15 1 -15 -4z"/>
<path d="M3540 4525 c0 -8 7 -15 15 -15 8 0 15 7 15 15 0 8 -7 15 -15 15 -8 0
-15 -7 -15 -15z"/>
<path d="M3702 4493 c-23 -25 -23 -28 -6 -40 22 -16 30 -8 39 35 8 39 -2 41
-33 5z"/>
<path d="M3647 4503 c-13 -12 -7 -23 13 -23 11 0 20 7 20 15 0 15 -21 21 -33
8z"/>
<path d="M3841 4473 c1 -17 3 -21 6 -10 2 9 9 17 14 17 6 0 7 5 4 10 -12 19
-25 10 -24 -17z"/>
<path d="M3597 4479 c7 -7 15 -10 18 -7 3 3 -2 9 -12 12 -14 6 -15 5 -6 -5z"/>
<path d="M3785 4480 c3 -5 13 -10 21 -10 8 0 12 5 9 10 -3 6 -13 10 -21 10 -8
0 -12 -4 -9 -10z"/>
<path d="M4008 4483 c7 -3 16 -2 19 1 4 3 -2 6 -13 5 -11 0 -14 -3 -6 -6z"/>
<path d="M4090 4480 c8 -5 22 -9 30 -9 10 0 8 3 -5 9 -27 12 -43 12 -25 0z"/>
<path d="M3630 4455 c-10 -12 -10 -15 3 -15 8 0 20 7 27 15 10 12 10 15 -3 15
-8 0 -20 -7 -27 -15z"/>
<path d="M3948 4463 c6 -2 18 -2 25 0 6 3 1 5 -13 5 -14 0 -19 -2 -12 -5z"/>
<path d="M3760 4444 c0 -8 8 -17 18 -20 9 -3 25 -10 34 -15 22 -11 28 -11 28
-1 0 5 -18 18 -40 30 -32 17 -40 18 -40 6z"/>
<path d="M4080 4440 c0 -6 -34 -10 -82 -10 -58 0 -79 -3 -71 -11 7 -7 35 -8
87 -2 43 5 79 6 82 1 6 -10 24 -11 24 0 0 4 -9 13 -20 20 -12 7 -20 8 -20 2z"/>
<path d="M3870 4416 c0 -10 9 -16 21 -16 24 0 21 23 -4 28 -10 2 -17 -3 -17
-12z"/>
<path d="M4944 4029 c-3 -6 -1 -16 5 -22 8 -8 11 -5 11 11 0 24 -5 28 -16 11z"/>
<path d="M3555 3920 c-3 -6 1 -7 9 -4 18 7 21 14 7 14 -6 0 -13 -4 -16 -10z"/>
<path d="M3506 3811 c-4 -7 -5 -15 -2 -18 9 -9 19 4 14 18 -4 11 -6 11 -12 0z"/>
<path d="M2929 3445 c-74 -13 -349 -122 -349 -139 0 -2 12 -1 26 2 19 3 31 -1
43 -15 21 -26 137 -66 169 -58 13 3 30 1 38 -5 7 -7 18 -9 24 -5 5 3 10 1 10
-5 0 -7 8 -9 19 -5 11 3 22 1 26 -5 3 -5 17 -10 31 -10 13 0 24 -5 24 -11 0
-6 7 -9 15 -6 8 4 17 2 20 -4 4 -5 11 -7 16 -3 5 3 15 1 22 -4 8 -7 19 -5 34
8 19 15 23 29 24 85 l2 68 38 -41 c46 -49 50 -40 10 20 -16 24 -37 61 -47 83
-10 22 -20 42 -22 45 -8 11 -116 15 -173 5z"/>
<path d="M4655 3390 c-3 -5 -1 -10 4 -10 6 0 11 5 11 10 0 6 -2 10 -4 10 -3 0
-8 -4 -11 -10z"/>
<path d="M5304 3364 c-16 -4 -24 -15 -29 -40 -3 -19 -21 -71 -40 -116 -19 -44
-31 -78 -28 -74 3 3 13 0 21 -7 13 -10 14 -8 7 13 l-7 25 21 -24 21 -24 -4 29
c-2 16 -1 23 1 16 4 -10 17 -12 46 -8 23 3 90 8 148 10 60 3 121 12 142 21 20
8 48 15 62 15 14 0 28 6 31 14 4 10 19 13 52 11 26 -2 39 -1 30 2 -27 7 -22
26 5 20 12 -4 29 -2 37 3 12 8 12 10 -4 10 -22 0 -37 4 -201 61 -96 33 -137
42 -205 44 -47 2 -95 1 -106 -1z"/>
<path d="M4713 3154 c-15 -16 -16 -24 -4 -24 8 0 24 30 19 35 -2 2 -9 -3 -15
-11z"/>
<path d="M3280 3113 c6 -10 24 -38 40 -63 16 -25 44 -74 62 -109 18 -35 39
-66 46 -68 6 -3 12 -10 12 -16 0 -6 15 -25 33 -42 19 -16 37 -38 40 -47 4 -10
12 -18 19 -18 8 0 9 3 3 8 -12 8 -45 100 -45 123 0 9 -11 28 -24 42 -16 17
-24 38 -24 58 1 19 -6 37 -15 44 -9 7 -14 15 -10 18 3 4 0 7 -8 7 -8 0 -21 6
-27 13 -7 6 -16 12 -20 12 -13 1 -72 39 -72 47 0 4 -5 8 -10 8 -7 0 -7 -6 0
-17z m145 -113 c3 -5 1 -10 -4 -10 -6 0 -11 5 -11 10 0 6 2 10 4 10 3 0 8 -4
11 -10z"/>
<path d="M4677 3093 c-11 -13 -17 -26 -15 -29 7 -7 40 34 37 44 -2 6 -12 -1
-22 -15z"/>
<path d="M4627 3004 c-14 -19 -15 -24 -4 -24 8 0 17 10 20 22 8 30 5 30 -16 2z"/>
<path d="M4480 2775 c-12 -19 -26 -35 -32 -35 -6 0 -8 -6 -5 -14 3 -8 -1 -20
-9 -26 -8 -7 -14 -17 -14 -23 0 -6 -8 -19 -17 -30 -13 -14 -14 -19 -4 -15 8 2
26 26 40 53 14 27 36 60 49 74 19 23 30 51 18 51 -2 0 -14 -16 -26 -35z"/>
<path d="M4372 2590 c0 -14 2 -19 5 -12 2 6 2 18 0 25 -3 6 -5 1 -5 -13z"/>
<path d="M4325 2559 c-4 -6 -4 -13 -1 -16 3 -4 6 -1 6 5 0 6 7 9 17 5 11 -4
14 -3 9 5 -9 15 -23 15 -31 1z"/>
<path d="M4278 2553 c7 -3 16 -2 19 1 4 3 -2 6 -13 5 -11 0 -14 -3 -6 -6z"/>
<path d="M4080 2540 c0 -6 4 -10 9 -10 5 0 12 -9 16 -20 3 -11 22 -46 41 -77
19 -32 41 -78 48 -103 l13 -44 15 24 c28 44 118 204 118 210 0 3 -22 7 -50 8
-28 1 -50 -2 -50 -8 0 -5 11 -10 25 -10 14 0 25 -4 25 -10 0 -21 -49 -9 -86
21 -37 29 -38 29 -46 10 l-7 -21 -36 20 c-19 11 -35 15 -35 10z"/>
<path d="M4047 2418 c5 -7 26 -58 48 -113 21 -55 41 -102 43 -105 2 -3 12 6
22 20 19 25 19 25 -7 70 -41 70 -94 140 -105 140 -7 0 -7 -5 -1 -12z"/>
<path d="M4101 1944 c0 -11 3 -14 6 -6 3 7 2 16 -1 19 -3 4 -6 -2 -5 -13z"/>
<path d="M4192 1940 c7 -10 14 -18 15 -16 6 6 -9 36 -18 36 -5 0 -4 -9 3 -20z"/>
<path d="M7625 1485 c-8 -40 -12 -165 -6 -165 8 0 61 151 61 172 0 22 -50 16
-55 -7z"/>
<path d="M767 1473 c-14 -24 -15 -135 -3 -193 22 -102 34 -142 43 -149 4 -3 9
-15 11 -26 2 -11 10 -25 19 -32 9 -7 13 -19 9 -28 -3 -9 1 -30 9 -46 9 -16 14
-33 11 -37 -2 -4 -1 -34 4 -67 7 -60 7 -60 9 30 1 109 -17 464 -25 485 -5 12
-8 11 -15 -5 -8 -18 -9 -18 -5 4 5 23 -11 71 -24 71 -4 0 -5 -12 -2 -26 3 -19
1 -25 -7 -20 -6 4 -11 13 -11 21 0 16 -17 29 -23 18z"/>
<path d="M3870 1136 c0 -9 5 -16 10 -16 6 0 10 4 10 9 0 6 -4 13 -10 16 -5 3
-10 -1 -10 -9z"/>
<path d="M7632 1076 c-28 -9 -35 -18 -47 -61 -23 -83 -45 -273 -44 -380 1 -55
4 -87 6 -70 3 16 12 41 22 55 9 14 25 50 35 80 10 30 27 70 37 88 11 18 19 39
19 47 0 8 9 30 20 50 11 20 20 54 20 79 0 26 6 48 15 56 12 10 10 16 -14 41
-16 16 -31 28 -33 28 -2 -1 -18 -7 -36 -13z"/>
<path d="M3881 1024 c0 -11 3 -14 6 -6 3 7 2 16 -1 19 -3 4 -6 -2 -5 -13z"/>
<path d="M882 790 c0 -19 2 -27 5 -17 2 9 2 25 0 35 -3 9 -5 1 -5 -18z"/>
<path d="M750 650 c0 -5 5 -10 10 -10 6 0 10 5 10 10 0 6 -4 10 -10 10 -5 0
-10 -4 -10 -10z"/>
<path d="M820 570 c0 -5 5 -10 11 -10 5 0 7 5 4 10 -3 6 -8 10 -11 10 -2 0 -4
-4 -4 -10z"/>
<path d="M770 541 c0 -11 6 -21 13 -24 15 -5 -31 -147 -50 -154 -7 -3 -13 -14
-13 -24 0 -10 -4 -19 -9 -19 -13 0 -31 -57 -31 -96 0 -19 -4 -34 -10 -34 -6 0
-10 -38 -10 -95 l0 -95 141 0 142 0 -7 143 c-8 169 -21 270 -40 306 -8 14 -22
43 -32 64 -19 38 -34 48 -34 22 0 -8 -9 -15 -20 -15 -13 0 -20 7 -20 20 0 11
-4 20 -10 20 -5 0 -10 -9 -10 -19z m78 -56 c-3 -3 -9 2 -12 12 -6 14 -5 15 5
6 7 -7 10 -15 7 -18z m-25 -6 c4 -3 1 -12 -8 -19 -13 -11 -15 -9 -15 15 0 16
3 24 8 19 4 -5 11 -11 15 -15z"/>
<path d="M4180 10 c0 -5 5 -10 10 -10 6 0 10 5 10 10 0 6 -4 10 -10 10 -5 0
-10 -4 -10 -10z"/>
<path d="M4220 10 c0 -5 5 -10 10 -10 6 0 10 5 10 10 0 6 -4 10 -10 10 -5 0
-10 -4 -10 -10z"/>
</g>
</svg>
